<?xml version="1.0" standalone="no"?>
<!DOCTYPE svg PUBLIC "-//W3C//DTD SVG 20010904//EN"
 "http://www.w3.org/TR/2001/REC-SVG-20010904/DTD/svg10.dtd">
<svg version="1.0" xmlns="http://www.w3.org/2000/svg"
 width="300.000000pt" height="300.000000pt" viewBox="0 0 300.000000 300.000000"
 preserveAspectRatio="xMidYMid meet">
<metadata>
Created by potrace 1.10, written by Peter Selinger 2001-2011
</metadata>
<g transform="translate(0.000000,300.000000) scale(0.100000,-0.100000)"
fill="#000000" stroke="none">
<path d="M1415 2713 c-99 -27 -118 -40 -146 -95 -24 -46 -44 -51 -35 -8 3 17
9 44 12 60 8 40 -11 63 -45 55 -14 -4 -64 -30 -110 -58 -87 -53 -111 -84 -111
-143 0 -16 -5 -24 -12 -22 -8 3 -14 27 -16 58 -6 103 -30 104 -129 8 -90 -88
-97 -99 -94 -160 2 -62 -24 -68 -34 -8 -4 22 -15 50 -24 61 -26 32 -48 15
-103 -78 -66 -111 -70 -124 -53 -174 19 -52 19 -59 0 -59 -8 0 -21 15 -28 33
-8 17 -24 41 -37 52 l-22 20 -22 -26 c-22 -26 -66 -173 -66 -222 0 -13 14 -41
30 -64 42 -56 16 -65 -36 -12 -73 74 -94 49 -94 -112 l0 -112 41 -38 c45 -42
46 -72 1 -43 -62 41 -75 44 -94 27 -24 -21 -23 -42 7 -148 21 -71 32 -96 58
-117 17 -16 37 -28 44 -28 15 0 26 -17 18 -29 -3 -6 -24 -3 -51 7 -51 19 -77
10 -82 -29 -3 -33 92 -191 128 -212 15 -9 42 -17 59 -17 21 0 31 -5 31 -15 0
-11 -13 -15 -54 -15 -105 0 -101 -44 15 -155 l81 -78 54 6 c41 4 54 2 54 -8 0
-15 -22 -25 -55 -25 -12 0 -33 -8 -45 -18 -37 -30 -19 -56 78 -113 100 -59
136 -68 182 -44 22 11 36 13 43 6 7 -7 -5 -19 -37 -38 -90 -54 -70 -88 74
-127 52 -14 100 -26 106 -26 6 0 31 13 55 30 24 16 47 30 52 30 17 0 5 -28
-24 -56 -47 -45 -53 -60 -29 -84 17 -17 33 -20 121 -20 112 0 130 6 176 59 27
31 32 34 38 18 5 -11 -2 -29 -19 -51 -26 -35 -34 -66 -17 -66 5 0 25 24 44 52
l35 53 -22 37 c-11 21 -25 38 -31 37 -5 0 -27 -22 -47 -48 l-37 -49 -118 -4
c-65 -2 -120 -3 -122 -2 -3 3 61 62 81 75 5 3 7 22 3 41 -12 62 -18 64 -76 21
l-54 -40 -114 29 c-63 15 -116 30 -117 31 -2 2 23 16 55 31 59 28 59 28 56 67
-1 22 -5 42 -8 45 -3 3 -32 -4 -65 -16 l-60 -22 -106 60 -107 60 38 6 c91 16
90 15 102 57 7 22 10 43 7 47 -3 5 -33 5 -68 1 l-63 -7 -80 76 c-44 42 -84 80
-90 85 -6 5 18 7 58 4 l68 -5 19 39 c11 21 20 40 20 43 0 2 -30 10 -67 16
l-68 12 -62 105 c-37 63 -55 102 -45 98 9 -3 37 -13 64 -22 l47 -15 28 33 c16
18 26 35 23 38 -3 3 -30 18 -60 32 l-55 26 -28 102 c-16 56 -31 110 -35 119
-4 12 3 10 29 -9 65 -49 78 -53 115 -33 19 10 34 24 34 30 0 6 -22 28 -50 50
l-49 39 -1 123 0 124 40 -51 c22 -28 43 -51 47 -51 18 0 83 24 83 32 0 4 -16
30 -36 58 l-36 50 28 115 c16 63 31 115 34 115 3 0 16 -25 29 -55 23 -54 24
-55 66 -55 23 0 44 3 47 6 3 3 -4 32 -17 64 l-23 59 56 105 c32 58 60 106 65
106 4 0 7 -12 7 -27 0 -16 5 -44 10 -63 8 -30 16 -37 50 -46 22 -6 42 -9 44
-7 3 3 3 35 0 72 l-5 66 84 87 84 88 -4 -68 c-5 -66 -5 -67 25 -84 51 -30 59
-25 66 45 l7 63 102 61 c56 33 104 59 105 58 2 -2 -6 -29 -17 -61 l-22 -57 27
-29 c15 -15 33 -28 39 -28 5 0 22 27 36 59 26 58 27 59 85 75 33 9 85 25 117
35 31 10 57 16 57 13 0 -3 -11 -19 -23 -36 -47 -61 -49 -71 -26 -110 12 -20
25 -36 29 -36 4 0 25 23 46 50 l38 50 92 0 c50 0 107 3 125 6 l34 5 -52 -46
c-50 -45 -51 -47 -41 -83 5 -20 13 -41 18 -45 4 -5 31 9 60 31 l52 39 91 -22
c51 -13 106 -26 122 -30 29 -7 29 -7 -32 -35 l-63 -29 0 -47 c0 -52 2 -53 90
-19 l45 17 105 -58 c116 -65 115 -56 8 -82 -25 -6 -34 -14 -41 -41 -14 -54 -7
-59 64 -49 l62 8 88 -86 88 -86 -65 5 c-65 5 -66 5 -85 -26 -27 -45 -24 -54
19 -61 93 -16 88 -12 151 -118 34 -56 59 -103 57 -105 -2 -3 -17 2 -33 10 -59
30 -84 30 -114 1 -16 -15 -29 -32 -29 -36 0 -5 27 -20 60 -34 58 -26 60 -28
75 -83 9 -31 24 -83 35 -116 10 -33 17 -61 15 -63 -2 -2 -24 13 -50 32 -25 20
-50 36 -55 36 -13 0 -80 -41 -80 -48 1 -4 23 -24 50 -45 l50 -38 0 -78 c0 -43
3 -100 6 -127 l7 -49 -49 53 c-48 52 -49 52 -86 42 -21 -6 -39 -14 -42 -18 -2
-4 13 -31 34 -59 l39 -51 -29 -113 c-16 -63 -29 -116 -30 -119 0 -3 -13 20
-29 50 -27 54 -28 55 -75 58 -35 2 -47 0 -44 -10 2 -7 12 -38 22 -68 l18 -55
-58 -104 c-64 -114 -61 -113 -78 -11 -5 32 -11 37 -46 47 -25 6 -43 7 -46 1
-4 -5 -3 -37 0 -71 l7 -62 -86 -85 -87 -85 7 65 6 65 -41 23 c-46 26 -46 26
-58 -58 l-7 -55 -104 -62 c-56 -35 -104 -63 -106 -63 -1 0 7 27 19 60 l21 59
-30 31 c-16 16 -32 30 -36 30 -4 0 -20 -26 -34 -59 l-27 -59 -96 -27 c-54 -15
-108 -33 -121 -40 l-25 -12 22 -7 c21 -7 183 33 225 56 10 5 28 30 38 54 11
24 24 44 29 44 19 0 21 -23 4 -66 -17 -45 -17 -46 5 -67 l22 -22 76 40 c98 51
153 102 153 141 0 16 5 36 10 44 16 24 32 -8 25 -48 -7 -37 15 -82 40 -82 19
0 125 99 160 149 23 35 27 48 22 86 -4 39 -2 46 11 43 10 -2 20 -19 25 -44 4
-23 17 -50 28 -59 19 -18 20 -18 47 8 15 15 47 64 72 111 47 89 48 102 15 180
-11 26 24 18 39 -9 63 -113 87 -100 132 70 27 105 27 107 -16 172 -32 48 -6
50 39 4 46 -47 63 -50 85 -19 12 17 16 48 16 125 l0 103 -42 46 c-52 56 -40
75 21 34 53 -36 56 -36 77 -6 14 23 14 31 -11 122 -32 116 -43 136 -95 159
-61 28 -45 54 17 28 48 -19 72 -16 85 12 9 21 5 34 -32 100 -65 112 -89 137
-139 144 -59 8 -52 25 14 31 54 5 74 18 75 47 0 17 -117 140 -158 165 -26 16
-43 19 -78 14 -34 -4 -44 -2 -44 8 0 16 21 26 54 26 12 0 33 11 45 24 l22 23
-25 29 c-13 16 -62 49 -109 74 -89 47 -103 48 -179 15 -38 -15 -17 24 24 47
95 53 74 84 -83 123 l-111 28 -44 -32 c-51 -36 -54 -37 -54 -15 0 8 16 30 35
48 41 39 44 60 10 82 -19 13 -45 15 -131 12 l-106 -3 -38 -42 c-21 -24 -40
-43 -44 -43 -14 0 -4 39 19 70 30 40 31 52 7 73 -23 21 -28 21 -137 -10z"/>
<path d="M1403 2632 c-48 -16 -113 -62 -86 -62 6 0 48 18 94 39 87 41 83 51
-8 23z"/>
<path d="M1127 2603 c-55 -33 -96 -77 -83 -90 3 -3 14 2 23 13 10 11 37 32 60
48 85 57 85 79 0 29z"/>
<path d="M1613 2578 c-27 -13 -31 -33 -5 -23 9 3 50 10 90 15 40 4 76 11 79
14 11 11 -141 5 -164 -6z"/>
<path d="M847 2492 c-31 -32 -48 -59 -52 -82 l-6 -35 18 25 c10 13 29 38 43
55 36 42 62 85 52 85 -4 0 -29 -21 -55 -48z"/>
<path d="M1255 2509 c-235 -40 -439 -146 -593 -309 -62 -65 -150 -195 -176
-260 -15 -36 -31 -75 -36 -87 -23 -54 -29 -70 -38 -113 -27 -114 -28 -222 -6
-380 17 -128 32 -176 95 -306 230 -480 801 -691 1299 -482 265 111 470 337
564 620 32 94 60 302 53 383 -15 153 -28 210 -68 300 -10 22 -29 66 -43 97
-13 32 -29 63 -35 70 -53 65 -70 88 -93 119 -31 41 -104 113 -141 138 -14 9
-53 36 -87 60 -70 49 -223 114 -320 137 -81 19 -295 26 -375 13z m399 -43
c434 -112 745 -512 746 -957 0 -388 -206 -726 -550 -899 -389 -196 -862 -116
-1161 197 -88 93 -127 147 -179 251 -129 258 -136 570 -19 845 99 233 320 440
569 534 184 69 399 79 594 29z"/>
<path d="M1185 2117 c-55 -57 -124 -129 -153 -160 l-53 -57 -59 7 -60 6 -72
-72 c-40 -40 -125 -106 -188 -148 -115 -76 -170 -119 -170 -135 0 -23 301 186
375 261 38 39 77 71 87 71 9 0 33 -8 53 -17 l36 -17 87 94 c184 202 238 253
254 244 9 -5 37 -35 62 -66 28 -34 55 -58 66 -58 11 0 32 18 50 45 49 71 69
61 152 -70 65 -102 67 -103 123 -61 73 56 73 56 187 -91 44 -58 114 -125 236
-228 96 -81 176 -144 179 -141 9 9 -122 134 -252 241 -59 49 -88 80 -161 170
-91 114 -116 124 -193 83 -40 -21 -41 -21 -62 -2 -12 10 -29 35 -40 55 -10 20
-34 53 -52 73 -46 48 -81 48 -127 1 -19 -19 -37 -35 -41 -35 -4 0 -32 25 -62
55 -36 36 -62 55 -78 55 -17 0 -52 -29 -124 -103z"/>
<path d="M1340 2068 c11 -18 20 -50 20 -72 0 -28 8 -47 30 -73 34 -38 40 -86
15 -119 -22 -29 -18 -39 19 -52 18 -7 46 -24 61 -38 27 -25 27 -26 9 -45 -12
-12 -45 -22 -92 -29 -40 -5 -87 -17 -103 -26 -31 -15 -40 -14 -133 19 -29 11
-66 59 -66 88 0 17 -35 53 -62 62 -18 6 -78 -10 -78 -21 0 -4 20 -20 45 -35
66 -42 57 -76 -30 -113 -33 -13 -45 -14 -76 -4 -46 16 -96 -1 -109 -35 -12
-31 -71 -45 -217 -52 -91 -4 -127 -2 -138 7 -22 18 -19 -4 3 -23 10 -10 29
-17 43 -18 25 0 72 -17 53 -18 -6 -1 -19 -19 -29 -42 -23 -49 -23 -145 0 -189
23 -44 72 -72 110 -63 17 4 108 6 202 6 168 -2 173 -1 191 21 l17 23 18 -24
c18 -23 61 -31 72 -13 4 6 18 5 40 -4 29 -12 36 -12 54 0 25 18 26 40 5 95
-16 38 -16 43 0 76 14 29 14 38 4 52 -19 24 -29 30 -50 26 -13 -3 -22 6 -32
30 -24 57 -80 56 -108 -3 -10 -21 -21 -27 -45 -28 -17 0 -39 -6 -47 -14 -14
-11 -23 -10 -55 4 -30 14 -46 16 -75 8 -31 -9 -36 -8 -36 6 0 9 -6 29 -14 44
-13 24 -13 28 3 33 10 3 35 21 57 40 33 30 44 34 69 28 63 -15 122 3 175 53
l26 24 24 -23 c27 -24 61 -40 124 -56 30 -8 47 -7 74 5 20 8 64 19 99 24 74
10 123 40 123 75 0 15 -15 37 -44 62 -43 38 -43 38 -38 95 4 50 2 59 -22 85
-14 15 -26 32 -26 36 0 20 62 -60 81 -104 17 -40 30 -52 68 -70 25 -12 62 -35
82 -51 38 -29 63 -34 88 -19 11 7 24 1 48 -19 102 -90 303 -200 366 -200 27
-1 56 -10 82 -25 47 -29 119 -33 153 -9 29 20 29 39 0 23 -35 -19 -124 -5
-165 27 -28 21 -39 25 -53 16 -13 -8 -30 -5 -71 12 -121 50 -306 175 -328 222
-20 45 0 52 75 26 37 -13 68 -21 71 -19 6 6 -44 106 -64 129 -13 15 -18 15
-48 2 -74 -31 -118 -8 -165 86 -16 32 -35 62 -41 66 -8 4 -9 3 -5 -5 4 -7 15
-51 25 -99 l17 -87 46 -25 c52 -27 76 -63 57 -86 -19 -24 -48 -16 -92 25 -24
23 -55 41 -72 43 -25 3 -31 9 -42 46 -12 43 -58 107 -137 190 -48 50 -63 54
-36 10z m488 -219 c2 -14 -6 -16 -47 -14 -66 4 -88 18 -41 26 54 10 84 6 88
-12z m-1095 -506 c-2 -132 -3 -137 -23 -137 -20 0 -21 5 -23 137 l-2 137 25 0
25 0 -2 -137z m376 52 c-2 -47 -3 -85 -2 -85 2 0 14 23 28 50 20 40 30 50 50
50 31 0 31 -2 -1 -49 l-25 -39 27 -55 c16 -31 26 -59 23 -61 -15 -15 -52 10
-66 45 -18 47 -33 42 -33 -10 0 -34 -3 -38 -25 -38 l-25 0 0 138 0 139 26 0
26 0 -3 -85z m-452 61 c3 -2 2 -14 -2 -25 -5 -17 -10 -19 -25 -11 -42 22 -64
-10 -63 -93 1 -61 17 -81 61 -74 30 5 32 4 26 -16 -21 -69 -115 -35 -134 48
-15 62 -2 125 32 158 24 25 34 29 65 24 19 -4 38 -8 40 -11z m222 -63 c17 -15
21 -31 22 -102 2 -87 -6 -105 -34 -77 -13 14 -16 14 -28 0 -33 -40 -92 19 -74
73 8 22 19 30 53 37 30 7 42 14 39 25 -2 12 -13 15 -39 14 -43 -3 -61 23 -25
37 35 14 63 11 86 -7z m101 0 c0 -15 1 -15 18 0 26 24 42 21 42 -8 0 -18 -5
-25 -19 -25 -25 0 -31 -19 -31 -95 0 -60 -1 -62 -25 -62 l-25 0 0 103 c0 97 1
104 20 104 12 0 20 -7 20 -17z m-330 -52 c0 -35 -4 -51 -16 -55 -25 -10 -34 2
-34 48 0 47 5 56 32 56 15 0 18 -8 18 -49z"/>
<path d="M823 1293 c-16 -6 -17 -39 -1 -49 12 -8 38 21 38 43 0 13 -15 16 -37
6z"/>
<path d="M1364 1490 c-12 -5 -34 -24 -48 -43 -22 -29 -26 -45 -27 -104 -2
-130 65 -194 164 -156 25 10 41 12 50 6 26 -22 64 -22 102 -3 35 18 41 18 62
5 17 -11 48 -15 125 -13 57 1 108 5 115 10 7 6 20 4 32 -4 16 -10 27 -10 52
-1 26 10 37 9 61 -3 17 -9 39 -14 49 -11 16 4 17 2 8 -14 -15 -29 32 -73 69
-64 45 11 70 45 95 135 35 120 41 168 27 185 -15 18 -61 20 -77 4 -8 -8 -17
-8 -31 0 -12 6 -33 12 -47 13 -14 1 -35 12 -47 25 -17 18 -25 20 -42 11 -11
-5 -28 -19 -37 -31 -14 -17 -21 -18 -47 -9 -20 7 -52 8 -90 2 -32 -4 -70 -6
-85 -3 -15 3 -33 0 -40 -6 -10 -8 -22 -7 -45 1 -24 9 -36 9 -54 0 -19 -11 -30
-10 -59 2 -40 17 -71 12 -111 -16 -21 -15 -29 -30 -34 -68 -4 -30 -12 -51 -22
-55 -24 -9 -34 9 -30 56 3 38 6 44 28 47 35 5 50 20 50 51 0 45 -63 72 -116
51z m85 -29 c8 -5 11 -16 6 -30 -5 -17 -10 -19 -25 -11 -42 22 -62 -8 -62 -92
1 -63 16 -82 59 -75 28 5 33 3 33 -13 0 -11 -9 -24 -19 -30 -74 -39 -140 47
-124 160 10 75 81 123 132 91z m631 -36 c0 -18 5 -25 20 -25 11 0 20 -7 20
-15 0 -8 -9 -15 -20 -15 -19 0 -21 -5 -18 -62 3 -55 5 -63 21 -60 14 3 18 -2
15 -20 -4 -28 -35 -35 -63 -14 -16 12 -20 27 -22 82 -1 43 -6 70 -15 76 -10 7
-10 11 3 21 9 7 19 22 23 35 10 30 36 29 36 -3z m-475 -40 c21 -20 25 -34 25
-80 0 -46 -4 -60 -25 -80 -27 -28 -42 -30 -78 -14 -30 14 -47 48 -47 95 0 90
70 135 125 79z m105 -54 c0 -81 9 -102 35 -81 11 9 15 34 15 86 0 72 1 74 25
74 l25 0 0 -105 c0 -104 -5 -118 -32 -91 -12 11 -17 11 -33 0 -26 -19 -41 -18
-65 6 -17 17 -20 33 -20 105 0 84 0 85 25 85 25 0 25 -1 25 -79z m178 63 c8
-14 10 -14 21 0 17 21 40 20 63 -1 15 -13 18 -32 18 -103 0 -84 -1 -87 -22
-85 -21 1 -23 7 -28 80 -3 50 -10 80 -17 83 -18 5 -26 -20 -27 -96 -1 -62 -3
-66 -23 -66 -13 0 -23 3 -23 7 0 4 0 50 0 102 0 76 3 95 15 95 7 0 18 -7 23
-16z m292 -9 c5 -13 12 -47 16 -75 4 -28 9 -48 12 -45 3 3 10 35 16 72 11 63
13 68 39 71 15 2 27 2 27 0 -2 -32 -72 -254 -85 -268 -23 -26 -75 -27 -75 -2
0 9 10 22 23 27 31 14 32 41 3 137 -14 46 -26 89 -26 96 0 23 40 13 50 -13z"/>
<path d="M1542 1358 c-16 -16 -15 -93 2 -107 22 -18 38 11 34 65 -3 49 -15 63
-36 42z"/>
<path d="M1292 1115 c-28 -30 -35 -33 -58 -25 -33 13 -80 13 -104 0 -13 -7
-21 -7 -25 0 -3 5 -23 10 -44 10 -24 0 -44 7 -54 18 -13 14 -30 18 -71 17 -78
-1 -86 -11 -86 -109 0 -44 5 -88 10 -96 9 -15 92 -22 210 -19 221 5 263 0 291
-35 28 -35 61 -33 94 6 26 30 29 31 103 30 42 0 124 0 182 0 58 0 118 0 134
-1 47 -1 66 24 66 84 0 73 -26 105 -85 105 -24 0 -46 -4 -49 -9 -4 -5 -19 -5
-36 2 -22 8 -38 8 -58 1 -18 -7 -37 -8 -53 -2 -13 6 -75 8 -136 6 l-113 -4
-27 28 c-35 36 -51 35 -91 -7z m68 -85 c0 -91 -8 -118 -25 -90 -4 6 -13 5 -26
-3 -17 -10 -22 -9 -35 7 -19 27 -18 100 2 120 12 13 20 14 36 5 20 -11 20 -9
14 25 -6 32 -5 36 14 36 19 0 20 -6 20 -100z m-448 47 c-3 -34 -2 -37 23 -37
25 0 26 3 23 37 -2 30 1 38 15 41 15 3 17 -7 17 -93 0 -86 -2 -96 -17 -93 -14
3 -17 11 -15 41 3 34 2 37 -23 37 -25 0 -26 -3 -23 -37 2 -30 -1 -38 -15 -41
-15 -3 -17 7 -17 93 0 86 2 96 17 93 14 -3 17 -11 15 -41z m182 -13 c11 -10
16 -34 16 -75 0 -54 -10 -74 -25 -49 -4 6 -13 5 -25 -3 -16 -9 -23 -9 -36 5
-26 25 -11 67 27 75 34 7 34 28 -1 28 -31 0 -37 22 -8 28 13 2 26 5 30 6 4 0
14 -6 22 -15z m130 0 c11 -10 16 -34 16 -75 0 -52 -2 -59 -20 -59 -16 0 -19 8
-22 55 -4 72 -22 71 -26 -1 -2 -44 -6 -55 -19 -52 -13 2 -16 17 -17 71 -1 65
0 68 21 62 12 -3 25 -1 28 5 9 14 21 12 39 -6z m366 -7 c0 -5 9 -2 20 8 19 17
21 17 40 0 16 -14 20 -31 20 -77 0 -51 -2 -58 -20 -58 -16 0 -19 8 -22 55 -2
30 -7 55 -13 55 -5 0 -11 -25 -13 -55 -3 -48 -6 -55 -24 -55 -19 0 -20 4 -16
48 7 59 1 77 -18 61 -9 -7 -14 -31 -14 -60 0 -37 -4 -49 -15 -49 -12 0 -15 15
-15 71 0 65 2 71 19 66 10 -2 25 -1 31 3 16 10 40 2 40 -13z m171 13 c16 -9
19 -22 19 -73 l0 -63 -41 -1 c-33 -2 -41 2 -48 20 -13 34 -1 57 31 64 33 6 33
28 0 28 -36 0 -24 25 16 34 2 1 12 -4 23 -9z m149 -76 c0 -57 -2 -65 -17 -62
-14 3 -17 11 -15 40 2 21 1 47 -3 58 -12 38 -35 3 -35 -51 0 -37 -4 -49 -15
-49 -12 0 -15 15 -15 71 0 65 2 71 19 66 10 -2 25 -1 32 4 7 4 21 3 31 -2 15
-8 18 -22 18 -75z m-494 36 c7 -44 24 -55 24 -16 0 13 3 31 6 40 7 18 34 22
34 5 0 -14 -28 -115 -42 -151 -10 -28 -40 -44 -57 -33 -14 8 -2 35 15 35 19 0
18 23 -5 98 -19 61 -19 62 0 62 14 0 20 -10 25 -40z"/>
<path d="M1297 1034 c-11 -11 -8 -62 4 -70 15 -9 30 16 27 45 -3 25 -19 37
-31 25z"/>
<path d="M1875 2480 c-20 -9 -20 -9 0 -10 11 -1 29 -3 40 -6 11 -2 47 -6 80
-9 l60 -5 -55 20 c-60 20 -94 23 -125 10z"/>
<path d="M612 2313 c-19 -36 -32 -75 -31 -94 0 -33 1 -33 11 -9 5 14 21 49 35
77 36 78 25 100 -15 26z"/>
<path d="M2100 2322 c0 -10 168 -77 175 -70 3 2 -25 21 -61 41 -62 35 -114 48
-114 29z"/>
<path d="M428 2077 c-16 -60 -15 -117 3 -117 5 0 9 16 9 36 0 19 5 55 11 80 7
28 8 49 2 55 -5 5 -15 -15 -25 -54z"/>
<path d="M2304 2097 c16 -12 49 -39 73 -59 24 -21 49 -38 56 -38 19 0 -76 91
-110 106 -46 20 -53 16 -19 -9z"/>
<path d="M310 1817 c0 -43 6 -79 16 -98 8 -17 17 -29 20 -27 7 7 -15 158 -26
176 -7 12 -9 -1 -10 -51z"/>
<path d="M2410 1865 c0 -8 52 -74 98 -124 l34 -36 -36 65 c-20 39 -47 72 -65
83 -17 11 -31 16 -31 12z"/>
<path d="M254 1573 c3 -10 12 -43 21 -74 15 -54 48 -99 62 -86 3 4 -1 15 -10
25 -10 10 -17 24 -17 30 0 16 -48 122 -55 122 -4 0 -4 -8 -1 -17z"/>
<path d="M2473 1578 c3 -7 18 -42 33 -78 28 -68 44 -94 44 -69 0 25 -28 107
-45 133 -17 26 -42 37 -32 14z"/>
<path d="M2467 1240 c8 -105 22 -132 22 -45 0 43 -5 80 -14 95 -13 23 -14 19
-8 -50z"/>
<path d="M270 1286 c0 -19 72 -125 96 -141 40 -26 39 -12 -5 41 -79 97 -90
109 -91 100z"/>
<path d="M2370 1038 c-2 -10 -4 -30 -5 -45 -2 -16 -6 -55 -10 -88 -8 -75 8
-56 26 30 9 45 9 69 1 90 -7 20 -11 24 -12 13z"/>
<path d="M400 954 c25 -26 60 -53 79 -61 36 -15 58 -8 27 9 -10 6 -35 25 -55
43 -36 32 -72 55 -87 55 -5 0 12 -21 36 -46z"/>
<path d="M2216 795 c-5 -11 -18 -42 -31 -70 -21 -47 -42 -116 -32 -105 3 3 21
33 42 68 26 45 35 71 33 95 -3 27 -5 29 -12 12z"/>
<path d="M530 747 c0 -3 29 -22 65 -42 42 -23 75 -35 93 -33 23 3 18 8 -43 36
-71 33 -115 48 -115 39z"/>
<path d="M1968 561 c-71 -91 -77 -113 -15 -52 48 47 77 95 64 107 -2 2 -24
-22 -49 -55z"/>
<path d="M750 548 c0 -13 140 -39 170 -33 38 8 34 14 -11 20 -19 2 -62 7 -96
11 -35 4 -63 4 -63 2z"/>
<path d="M1716 457 c-21 -18 -55 -47 -75 -65 l-36 -34 60 32 c55 30 105 74
105 93 0 13 -15 6 -54 -26z"/>
<path d="M1170 440 c-14 -4 -43 -9 -65 -10 -80 -3 -83 -19 -4 -19 62 -1 81 3
100 19 26 21 14 25 -31 10z"/>
<path d="M1455 416 c-11 -7 -38 -19 -60 -26 -42 -14 -87 -40 -68 -40 30 0 142
42 158 60 14 16 15 20 4 20 -8 0 -23 -6 -34 -14z"/>
</g>
</svg>
